<svg id="Layer_1" data-name="Layer 1" xmlns="http://www.w3.org/2000/svg" viewBox="0 0 300 300"><defs><style>.cls-1{fill:#f9801c;}.cls-2{fill:#fff;}</style></defs><title>Pop-Songs-and-Poetry-COLORSE</title><path class="cls-1" d="M134.4,264.5a111,111,0,1,1,111-111A111.13,111.13,0,0,1,134.4,264.5Zm0-215a104,104,0,1,0,104,104A104.12,104.12,0,0,0,134.4,49.5Z"/><path class="cls-1" d="M175.29,167l0-80.55.05-2.93,0,0a2.8,2.8,0,0,0,0-.29c0-.07,0-.13,0-.19a3.65,3.65,0,0,0-.16-.59,2.29,2.29,0,0,0-.1-.23,2.59,2.59,0,0,0-.4-.65s0,0,0,0h0a3,3,0,0,0-.48-.46l-.07-.05-.21-.13a3.88,3.88,0,0,0-.45-.24l-.22-.08a2.42,2.42,0,0,0-.53-.13.57.57,0,0,0-.18,0,3.05,3.05,0,0,0-.74,0,3.45,3.45,0,0,0-.72.18l-.13.06a2.81,2.81,0,0,0-.54.29l-.08,0-.13.08L168,82.22l-58.09,28.72h0l-.63.31-.15.09a3,3,0,0,0-.61.44l0,0h0a2.69,2.69,0,0,0-.41.52s0,0,0,.07a1.63,1.63,0,0,0-.11.23,2.67,2.67,0,0,0-.2.46l-.06.23a3.35,3.35,0,0,0-.08.54,1.15,1.15,0,0,0,0,.19h0V178.5a21.43,21.43,0,1,0,7,18.18h0v-.76c0-.51.07-1,.07-1.54s0-1-.07-1.54V139.78l53.7-26.54v40.51a21.43,21.43,0,1,0,7.2,16A22,22,0,0,0,175.29,167Zm-67.72,28.85a14.46,14.46,0,1,1,0-3Zm7-63.91V116.45l53.69-26.54v15.52ZM154,184.2a14.46,14.46,0,1,1,14.46-14.46A14.47,14.47,0,0,1,154,184.2Z"/><path class="cls-2" d="M154.4,257.5a111,111,0,1,1,111-111A111.13,111.13,0,0,1,154.4,257.5Zm0-215a104,104,0,1,0,104,104A104.12,104.12,0,0,0,154.4,42.5Z"/><path class="cls-2" d="M195.29,160l0-80.55.05-2.93,0,0a2.8,2.8,0,0,0,0-.29c0-.07,0-.13,0-.19a3.65,3.65,0,0,0-.16-.59,2.29,2.29,0,0,0-.1-.23,2.59,2.59,0,0,0-.4-.65s0,0,0,0h0a3,3,0,0,0-.48-.46l-.07-.05-.21-.13a3.88,3.88,0,0,0-.45-.24l-.22-.08a2.42,2.42,0,0,0-.53-.13.57.57,0,0,0-.18,0,3.05,3.05,0,0,0-.74,0,3.45,3.45,0,0,0-.72.18l-.13.06a2.81,2.81,0,0,0-.54.29l-.08,0-.13.08L188,75.22l-58.09,28.72h0l-.63.31-.15.09a3,3,0,0,0-.61.44l0,0h0a2.69,2.69,0,0,0-.41.52s0,0,0,.07a1.63,1.63,0,0,0-.11.23,2.67,2.67,0,0,0-.2.46l-.06.23a3.35,3.35,0,0,0-.08.54,1.15,1.15,0,0,0,0,.19h0V171.5a21.43,21.43,0,1,0,7,18.18h0v-.76c0-.51.07-1,.07-1.54s0-1-.07-1.54V132.78l53.7-26.54v40.51a21.43,21.43,0,1,0,7.2,16A22,22,0,0,0,195.29,160Zm-67.72,28.85a14.46,14.46,0,1,1,0-3Zm7-63.91V109.45l53.69-26.54V98.43ZM174,177.2a14.46,14.46,0,1,1,14.46-14.46A14.47,14.47,0,0,1,174,177.2Z"/></svg>