<svg id="Layer_1" data-name="Layer 1" xmlns="http://www.w3.org/2000/svg" viewBox="0 0 300 300"><defs><style>.cls-1{fill:#44e2a6;}.cls-2{fill:#fff;}</style></defs><title>Pop-Songs-and-Poetry-Green</title><path class="cls-1" d="M134.4,264.5a111,111,0,1,1,111-111A111.13,111.13,0,0,1,134.4,264.5Zm0-215a104,104,0,1,0,104,104A104.12,104.12,0,0,0,134.4,49.5Z"/><path class="cls-1" d="M156.26,196.47a3.35,3.35,0,0,0,3.34-3.34c0-.31.17-30.94,14.31-49.95a3.35,3.35,0,0,0-.12-4.14c-.25-.29-24.6-29.62-36.39-67.41,0-.06-.06-.11-.08-.17a2.87,2.87,0,0,0-.21-.51c0-.08-.08-.16-.13-.24a3.8,3.8,0,0,0-.47-.59l-.16-.13a2.54,2.54,0,0,0-.5-.36.94.94,0,0,0-.22-.12,3.28,3.28,0,0,0-.74-.27h0a3.82,3.82,0,0,0-.68-.06h-.09l-.26,0a4.54,4.54,0,0,0-.51.09l-.23.07a2.94,2.94,0,0,0-.51.23l-.17.09a3.33,3.33,0,0,0-.59.46,3,3,0,0,0-.46.6.75.75,0,0,0-.07.12,2.94,2.94,0,0,0-.26.57l0,.08c-11.8,37.79-36.21,67.23-36.46,67.53a3.35,3.35,0,0,0-.12,4.14c14.11,19,14.28,49.63,14.29,49.94a3.34,3.34,0,0,0,3.34,3.34Zm-55-55.16a232.59,232.59,0,0,0,29.55-50.14v37.31a14.2,14.2,0,0,0-10.91,13.83,14.26,14.26,0,0,0,14.25,14.25,14.23,14.23,0,0,0,3.34-28.08V91.18A232.21,232.21,0,0,0,167,141.32c-11.4,16.94-13.59,39.92-14,48.47l-37.75,0C114.85,181.22,112.66,158.25,101.27,141.31ZM139.51,137a7.57,7.57,0,0,1-5.35,12.91,7.58,7.58,0,0,1-7.57-7.57A7.57,7.57,0,0,1,139.51,137Z"/><path class="cls-1" d="M105.51,236.22l57.26,0a3.33,3.33,0,0,0,3.34-3.34V216.17a10.75,10.75,0,0,0-10.75-10.75H112.93a10.75,10.75,0,0,0-10.76,10.75v16.72a3.35,3.35,0,0,0,3.34,3.34Zm3.35-20.07a4.06,4.06,0,0,1,4.06-4.05h42.45a4.08,4.08,0,0,1,4.06,4.07V229.5l-50.58,0Z"/><path class="cls-2" d="M154.4,257.5a111,111,0,1,1,111-111A111.13,111.13,0,0,1,154.4,257.5Zm0-215a104,104,0,1,0,104,104A104.12,104.12,0,0,0,154.4,42.5Z"/><path class="cls-2" d="M176.26,189.47a3.35,3.35,0,0,0,3.34-3.34c0-.31.17-30.94,14.31-49.95a3.35,3.35,0,0,0-.12-4.14c-.25-.29-24.6-29.62-36.39-67.41,0-.06-.06-.11-.08-.17a2.87,2.87,0,0,0-.21-.51c0-.08-.08-.16-.13-.24a3.8,3.8,0,0,0-.47-.59l-.16-.13a2.54,2.54,0,0,0-.5-.36.94.94,0,0,0-.22-.12,3.28,3.28,0,0,0-.74-.27h0a3.82,3.82,0,0,0-.68-.06h-.09l-.26,0-.51.09-.23.07a2.94,2.94,0,0,0-.51.23l-.17.09a3.33,3.33,0,0,0-.59.46,3,3,0,0,0-.46.6.75.75,0,0,0-.07.12,2.94,2.94,0,0,0-.26.57l0,.08c-11.8,37.79-36.21,67.23-36.46,67.53a3.35,3.35,0,0,0-.12,4.14c14.11,19,14.28,49.63,14.29,49.94a3.34,3.34,0,0,0,3.34,3.34Zm-55-55.16a232.59,232.59,0,0,0,29.55-50.14v37.31a14.2,14.2,0,0,0-10.91,13.83,14.26,14.26,0,0,0,14.25,14.25,14.23,14.23,0,0,0,3.34-28.08V84.18A232.21,232.21,0,0,0,187,134.32c-11.4,16.94-13.59,39.92-14,48.47l-37.75,0C134.85,174.22,132.66,151.25,121.27,134.31ZM159.51,130a7.57,7.57,0,0,1-5.35,12.91,7.58,7.58,0,0,1-7.57-7.57A7.57,7.57,0,0,1,159.51,130Z"/><path class="cls-2" d="M125.51,229.22l57.26,0a3.33,3.33,0,0,0,3.34-3.34V209.17a10.75,10.75,0,0,0-10.75-10.75H132.93a10.75,10.75,0,0,0-10.76,10.75v16.72a3.35,3.35,0,0,0,3.34,3.34Zm3.35-20.07a4.06,4.06,0,0,1,4.06-4.05h42.45a4.08,4.08,0,0,1,4.06,4.07V222.5l-50.58,0Z"/></svg>